<?xml version="1.0" standalone="no"?>
<!DOCTYPE svg PUBLIC "-//W3C//DTD SVG 20010904//EN"
 "http://www.w3.org/TR/2001/REC-SVG-20010904/DTD/svg10.dtd">
<svg version="1.0" xmlns="http://www.w3.org/2000/svg"
 width="555.000000pt" height="554.000000pt" viewBox="0 0 555.000000 554.000000"
 preserveAspectRatio="xMidYMid meet">

<g transform="translate(0.000000,554.000000) scale(0.100000,-0.100000)"
fill="#AE1F23" stroke="none">
<path d="M2528 4991 c-96 -61 -190 -219 -231 -389 -12 -50 -25 -91 -28 -89 -4
1 -30 30 -59 65 -58 69 -156 144 -218 166 l-40 15 -15 -32 c-30 -62 -38 -123
-35 -250 2 -70 2 -127 0 -127 -2 0 -22 13 -45 29 -58 39 -130 74 -212 102 -57
20 -90 24 -182 24 -63 0 -116 -4 -122 -10 -7 -7 14 -25 66 -55 232 -137 369
-332 347 -494 -6 -41 -14 -51 -83 -111 -302 -262 -515 -633 -583 -1015 -26
-149 -28 -394 -4 -527 63 -351 214 -634 465 -875 223 -215 515 -364 843 -430
99 -20 142 -23 343 -23 211 1 240 3 357 28 744 159 1313 723 1444 1432 26 140
26 421 0 560 -58 312 -208 596 -431 820 -229 228 -530 386 -871 456 -90 19
-147 23 -327 25 l-218 2 -26 34 c-39 50 -99 186 -114 253 -20 94 -14 245 13
353 13 50 21 92 18 92 -3 0 -27 -13 -52 -29z m428 -832 c298 -41 625 -229 851
-489 235 -269 388 -600 449 -965 23 -137 23 -397 0 -530 -68 -387 -260 -684
-558 -864 -57 -34 -46 -19 16 22 74 49 182 158 245 247 136 193 221 441 238
696 l6 90 -45 78 -45 77 19 39 c36 73 -1 135 -77 129 -31 -3 -38 1 -55 29
l-20 33 32 -6 c37 -6 50 0 67 32 16 32 14 64 -9 101 -16 26 -26 32 -52 32 -18
0 -48 -9 -67 -21 -36 -22 -37 -22 -69 32 l-21 35 57 -4 c71 -5 87 10 86 76 -1
36 -6 50 -28 69 -15 13 -35 23 -45 23 -24 0 -111 -57 -111 -72 0 -7 -16 12
-35 42 l-34 55 67 3 c79 4 102 19 102 69 0 62 -32 103 -81 103 -27 0 -107 -76
-111 -105 -3 -21 -8 -15 -36 36 -28 51 -31 60 -15 55 10 -3 43 8 78 27 51 27
60 37 63 62 2 19 -6 43 -20 65 -19 28 -31 36 -60 38 -34 3 -40 -1 -64 -38 -15
-23 -30 -57 -33 -76 l-6 -36 -33 58 c-18 31 -31 58 -30 59 2 0 24 18 51 39 37
30 47 45 47 68 0 36 -57 98 -89 98 -25 0 -71 -42 -71 -65 0 -24 -13 -18 -32
14 -15 28 -15 30 3 47 23 21 24 45 4 84 -17 34 -68 64 -93 56 -13 -4 -31 18
-77 99 l-60 104 -75 35 c-192 88 -432 122 -630 89 -19 -3 -32 -3 -29 0 3 4 41
13 85 21 97 17 246 20 350 5z"/>
<path d="M3712 894 c-12 -8 -22 -24 -22 -35 0 -30 72 -158 93 -165 16 -5 16
-8 4 -17 -54 -44 -62 -113 -19 -157 32 -31 163 -67 204 -55 34 11 68 46 68 71
0 17 9 25 34 34 48 15 70 44 69 88 -1 30 -10 45 -56 89 -57 55 -87 65 -128 42
-19 -9 -20 -17 -14 -77 l7 -67 -35 35 c-35 35 -35 35 -16 56 27 29 25 85 -3
112 -30 27 -106 62 -138 62 -14 0 -36 -7 -48 -16z"/>
<path d="M3537 759 c-79 -52 -109 -118 -72 -159 12 -14 27 -15 96 -8 86 8 105
17 120 56 20 52 -31 142 -81 142 -9 0 -38 -14 -63 -31z"/>
</g>
</svg>
