<?xml version="1.0" standalone="no"?>
<!DOCTYPE svg PUBLIC "-//W3C//DTD SVG 20010904//EN"
 "http://www.w3.org/TR/2001/REC-SVG-20010904/DTD/svg10.dtd">
<svg version="1.0" xmlns="http://www.w3.org/2000/svg"
 width="836.000000pt" height="245.000000pt" viewBox="0 0 836.000000 245.000000"
 preserveAspectRatio="xMidYMid meet">

<g transform="translate(0.000000,245.000000) scale(0.100000,-0.100000)"
fill="#AE1F23" stroke="none">
<path d="M5700 2123 c-77 -29 -60 -143 22 -143 36 0 78 40 78 73 0 47 -57 86
-100 70z"/>
<path d="M870 2085 c-20 -21 -42 -60 -55 -100 l-22 -65 -26 33 c-14 19 -40 41
-59 50 -30 15 -34 15 -42 -1 -5 -9 -10 -44 -10 -78 l0 -60 -44 24 c-50 28
-115 43 -149 35 -20 -4 -18 -8 25 -36 63 -43 112 -109 112 -152 0 -27 -11 -44
-64 -98 -73 -74 -134 -172 -167 -267 -33 -94 -34 -267 -1 -361 53 -153 151
-269 290 -342 111 -58 186 -77 305 -77 125 0 182 13 296 66 157 74 259 172
331 319 112 227 83 470 -78 653 -119 137 -288 212 -480 212 -82 0 -82 0 -102
32 -32 53 -44 126 -31 188 6 29 10 54 8 56 -2 2 -18 -12 -37 -31z m225 -300
c351 -92 560 -551 400 -881 -14 -27 -41 -68 -60 -90 l-36 -39 35 47 c67 91
107 262 75 319 -7 13 -14 40 -14 59 0 26 -5 35 -20 38 -30 6 -43 22 -17 22 16
0 22 6 22 24 0 32 -25 53 -45 36 -8 -6 -19 -9 -25 -5 -19 11 -10 25 16 25 22
0 25 4 22 27 -4 34 -32 42 -59 17 -10 -9 -19 -15 -19 -11 0 3 -2 12 -6 20 -3
10 4 16 26 21 25 5 31 10 28 27 -5 35 -33 47 -58 24 -14 -13 -24 -15 -31 -8
-7 7 -1 14 20 23 34 14 40 40 15 61 -14 12 -20 9 -40 -16 -20 -25 -24 -27 -30
-12 -4 12 0 23 11 31 22 16 16 60 -9 64 -11 3 -26 -4 -34 -14 -13 -18 -14 -17
-8 9 8 32 -7 57 -33 57 -10 0 -25 15 -34 35 -17 36 -17 36 4 24 12 -6 19 -7
15 -1 -11 19 -141 64 -206 72 l-65 7 50 2 c28 0 77 -6 110 -14z"/>
<path d="M1265 1670 c10 -11 20 -20 23 -20 3 0 -3 9 -13 20 -10 11 -20 20 -23
20 -3 0 3 -9 13 -20z"/>
<path d="M2324 1739 c-124 -14 -241 -87 -305 -188 l-29 -46 0 118 0 117 -45 0
-45 0 0 -671 0 -670 48 3 47 3 5 283 5 283 36 -49 c41 -54 118 -109 194 -138
39 -15 75 -19 170 -18 113 0 124 2 188 31 184 86 277 239 277 457 0 114 -16
177 -70 271 -60 104 -197 197 -310 210 -30 3 -64 7 -75 9 -11 2 -52 -1 -91 -5z
m169 -90 c100 -19 217 -121 258 -225 31 -80 38 -219 14 -300 -42 -144 -148
-245 -291 -274 -314 -65 -558 226 -457 545 44 140 146 231 292 260 66 13 92
12 184 -6z"/>
<path d="M4825 1739 c-120 -11 -213 -64 -286 -163 l-29 -39 0 101 0 102 -45 0
-45 0 0 -485 0 -485 45 0 45 0 0 294 c0 335 7 378 78 471 113 149 406 172 525
41 76 -83 87 -146 87 -518 l0 -288 45 0 45 0 0 308 c0 180 -5 333 -11 367 -31
167 -149 278 -312 293 -40 4 -103 4 -142 1z"/>
<path d="M6478 1738 c-243 -22 -418 -224 -418 -481 0 -150 48 -269 149 -367
90 -88 200 -130 341 -130 132 0 259 48 329 125 43 48 43 52 9 73 l-32 21 -44
-41 c-24 -22 -69 -52 -100 -66 -50 -23 -70 -27 -162 -27 -97 0 -110 3 -170 31
-72 34 -150 105 -179 163 -49 95 -63 222 -36 324 43 164 146 261 310 292 65
13 85 13 149 0 90 -17 125 -34 186 -91 l47 -44 32 25 33 24 -46 49 c-91 97
-222 136 -398 120z"/>
<path d="M7453 1739 c-87 -8 -159 -31 -233 -75 -79 -46 -83 -53 -55 -88 l23
-29 43 30 c65 42 107 60 199 79 70 15 92 16 151 6 160 -28 229 -110 229 -272
l0 -77 -227 -5 c-197 -5 -236 -8 -287 -26 -77 -28 -116 -59 -149 -121 -24 -43
-28 -63 -28 -125 0 -116 47 -188 161 -244 51 -25 64 -27 185 -27 127 0 132 1
197 33 45 22 82 49 112 85 l46 52 0 -83 0 -82 46 0 46 0 -4 358 c-5 385 -5
391 -62 480 -66 105 -197 149 -393 131z m357 -603 c0 -111 -9 -134 -79 -209
-75 -81 -237 -118 -362 -81 -107 31 -159 93 -159 187 0 78 27 128 85 163 59
34 112 41 333 43 l182 1 0 -104z"/>
<path d="M3162 1383 l3 -358 34 -68 c71 -142 200 -205 396 -195 134 7 232 59
307 162 l28 39 0 -96 0 -97 45 0 45 0 0 485 0 485 -44 0 -44 0 -4 -312 c-5
-362 -9 -384 -99 -482 -72 -79 -127 -100 -259 -100 -76 0 -115 5 -143 17 -65
28 -114 75 -144 135 l-28 57 -3 343 -3 342 -45 0 -45 0 3 -357z"/>
<path d="M5680 1255 l0 -485 45 0 45 0 0 485 0 485 -45 0 -45 0 0 -485z"/>
<path d="M1335 560 c-8 -12 22 -70 37 -70 6 0 3 -9 -8 -21 -24 -26 -10 -50 37
-62 28 -7 36 -5 50 12 10 12 22 21 27 21 6 0 14 10 18 22 5 16 0 27 -20 45
-32 27 -46 23 -46 -14 0 -21 -2 -23 -15 -13 -11 9 -12 17 -5 30 14 26 13 28
-20 45 -34 17 -47 19 -55 5z"/>
<path d="M1261 501 c-32 -32 -27 -51 13 -51 41 0 65 24 49 48 -15 25 -39 26
-62 3z"/>
</g>
</svg>
